<?xml version="1.0" encoding="UTF-8"?>
<svg xmlns="http://www.w3.org/2000/svg" xmlns:xlink="http://www.w3.org/1999/xlink" width="30px" height="30px" viewBox="0 0 30 29" version="1.1">
<defs>
<clipPath id="clip1">
  <path d="M 0.015625 0 L 29.972656 0 L 29.972656 28.988281 L 0.015625 28.988281 Z M 0.015625 0 "/>
</clipPath>
<clipPath id="clip2">
  <path d="M 5.679688 15.269531 L 24.304688 15.269531 L 24.304688 17.777344 L 5.679688 17.777344 Z M 5.679688 15.269531 "/>
</clipPath>
<clipPath id="clip3">
  <path d="M 13.203125 11.210938 L 16.785156 11.210938 L 16.785156 14.675781 L 13.203125 14.675781 Z M 13.203125 11.210938 "/>
</clipPath>
</defs>
<g id="surface1">
<g clip-path="url(#clip1)" clip-rule="nonzero">
<path style="fill-rule:nonzero;fill:rgb(0%,38.823529%,85.882353%);fill-opacity:1;stroke-width:1;stroke-linecap:butt;stroke-linejoin:miter;stroke:rgb(100%,100%,100%);stroke-opacity:1;stroke-miterlimit:4;" d="M 0.00722706 171.407597 C 0.00722706 76.740706 76.767712 0.000000000000007448 171.410662 0.000000000000007448 C 266.098318 0.000000000000007448 342.858803 76.740706 342.858803 171.407597 C 342.858803 266.12069 266.098318 342.861395 171.410662 342.861395 C 76.767712 342.861395 0.00722706 266.12069 0.00722706 171.407597 Z M 171.410662 340.181708 C 264.623015 340.181708 340.176433 264.642241 340.176433 171.407597 C 340.176433 78.219154 264.623015 2.679688 171.410662 2.679688 C 78.243015 2.679688 2.689597 78.219154 2.689597 171.407597 C 2.689597 264.642241 78.243015 340.181708 171.410662 340.181708 Z M 171.410662 340.181708 " transform="matrix(0.0873761,0,0,0.0845481,0.0149935,-0.00000000000000063)"/>
<path style=" stroke:none;fill-rule:nonzero;fill:rgb(0%,38.823529%,85.882353%);fill-opacity:1;" d="M 29.371094 14.492188 C 29.371094 6.808594 22.933594 0.578125 14.992188 0.578125 C 7.050781 0.578125 0.613281 6.808594 0.613281 14.492188 C 0.613281 22.179688 7.050781 28.40625 14.992188 28.40625 C 22.933594 28.40625 29.371094 22.179688 29.371094 14.492188 Z M 29.371094 14.492188 "/>
</g>
<g clip-path="url(#clip2)" clip-rule="nonzero">
<path style=" stroke:none;fill-rule:nonzero;fill:rgb(100%,100%,100%);fill-opacity:1;" d="M 7.09375 17.757812 L 6.464844 17.757812 L 5.683594 15.34375 L 6.199219 15.34375 L 6.78125 17.234375 L 7.363281 15.34375 L 7.875 15.34375 Z M 8.570312 15.75 L 8.1875 15.75 C 8.140625 15.75 8.113281 15.726562 8.113281 15.683594 L 8.113281 15.363281 C 8.113281 15.316406 8.140625 15.292969 8.1875 15.292969 L 8.570312 15.292969 C 8.589844 15.292969 8.605469 15.300781 8.617188 15.3125 C 8.628906 15.328125 8.632812 15.34375 8.632812 15.363281 L 8.632812 15.683594 C 8.632812 15.726562 8.613281 15.75 8.570312 15.75 Z M 8.625 17.757812 L 8.125 17.757812 L 8.125 16.003906 L 8.625 16.003906 Z M 9.507812 17.757812 L 9.007812 17.757812 L 9.007812 16.003906 L 9.390625 16.003906 L 9.507812 16.273438 C 9.574219 16.191406 9.644531 16.125 9.726562 16.066406 C 9.808594 16.011719 9.90625 15.984375 10.019531 15.984375 C 10.042969 15.984375 10.070312 15.984375 10.09375 15.984375 C 10.121094 15.988281 10.144531 15.992188 10.167969 16 L 10.167969 16.496094 C 10.132812 16.492188 10.097656 16.488281 10.0625 16.484375 C 10.023438 16.480469 9.988281 16.480469 9.957031 16.480469 C 9.890625 16.480469 9.832031 16.484375 9.777344 16.5 C 9.726562 16.515625 9.675781 16.535156 9.632812 16.5625 C 9.589844 16.589844 9.546875 16.625 9.507812 16.667969 Z M 10.945312 17.777344 C 10.785156 17.777344 10.65625 17.730469 10.566406 17.636719 C 10.472656 17.546875 10.425781 17.414062 10.425781 17.246094 L 10.425781 16.003906 L 10.925781 16.003906 L 10.925781 17.101562 C 10.925781 17.199219 10.949219 17.265625 11 17.296875 C 11.046875 17.332031 11.109375 17.347656 11.1875 17.347656 C 11.25 17.347656 11.316406 17.339844 11.382812 17.316406 C 11.449219 17.292969 11.507812 17.261719 11.558594 17.222656 L 11.558594 16.003906 L 12.0625 16.003906 L 12.0625 17.757812 L 11.648438 17.757812 L 11.558594 17.578125 C 11.476562 17.628906 11.386719 17.675781 11.28125 17.714844 C 11.171875 17.757812 11.0625 17.777344 10.945312 17.777344 Z M 13.097656 17.777344 C 13.039062 17.777344 12.980469 17.773438 12.914062 17.773438 C 12.847656 17.769531 12.785156 17.765625 12.71875 17.757812 C 12.652344 17.75 12.59375 17.742188 12.535156 17.730469 C 12.480469 17.722656 12.433594 17.710938 12.394531 17.699219 L 12.394531 17.414062 L 13.195312 17.414062 C 13.246094 17.414062 13.28125 17.410156 13.3125 17.402344 C 13.34375 17.394531 13.367188 17.382812 13.382812 17.359375 C 13.394531 17.339844 13.402344 17.308594 13.402344 17.269531 L 13.402344 17.214844 C 13.402344 17.171875 13.386719 17.136719 13.359375 17.113281 C 13.328125 17.089844 13.277344 17.078125 13.195312 17.078125 L 12.914062 17.078125 C 12.8125 17.078125 12.71875 17.0625 12.632812 17.03125 C 12.550781 17.003906 12.484375 16.953125 12.4375 16.882812 C 12.390625 16.8125 12.363281 16.71875 12.363281 16.601562 L 12.363281 16.5 C 12.363281 16.390625 12.386719 16.296875 12.433594 16.222656 C 12.476562 16.144531 12.550781 16.085938 12.65625 16.046875 C 12.761719 16.007812 12.910156 15.988281 13.09375 15.988281 C 13.167969 15.988281 13.246094 15.992188 13.332031 16 C 13.414062 16.007812 13.496094 16.019531 13.570312 16.03125 C 13.644531 16.042969 13.703125 16.054688 13.75 16.070312 L 13.75 16.355469 L 12.992188 16.355469 C 12.925781 16.355469 12.875 16.363281 12.84375 16.386719 C 12.808594 16.40625 12.792969 16.445312 12.792969 16.5 L 12.792969 16.554688 C 12.792969 16.59375 12.800781 16.621094 12.816406 16.640625 C 12.832031 16.660156 12.855469 16.671875 12.890625 16.679688 C 12.921875 16.6875 12.960938 16.691406 13.011719 16.691406 L 13.300781 16.691406 C 13.484375 16.691406 13.621094 16.730469 13.703125 16.8125 C 13.789062 16.894531 13.832031 17.007812 13.832031 17.152344 L 13.832031 17.308594 C 13.832031 17.425781 13.800781 17.515625 13.746094 17.585938 C 13.6875 17.65625 13.605469 17.703125 13.496094 17.730469 C 13.386719 17.761719 13.253906 17.777344 13.097656 17.777344 Z M 14.664062 17.757812 L 14.164062 17.757812 L 14.164062 15.34375 L 15.214844 15.34375 C 15.296875 15.34375 15.378906 15.351562 15.464844 15.371094 C 15.546875 15.390625 15.625 15.425781 15.695312 15.480469 C 15.765625 15.539062 15.824219 15.621094 15.867188 15.730469 C 15.910156 15.84375 15.933594 15.988281 15.933594 16.171875 C 15.933594 16.355469 15.910156 16.503906 15.867188 16.617188 C 15.824219 16.730469 15.769531 16.816406 15.699219 16.875 C 15.628906 16.933594 15.554688 16.972656 15.472656 16.992188 C 15.390625 17.011719 15.3125 17.019531 15.234375 17.019531 C 15.195312 17.019531 15.148438 17.019531 15.09375 17.015625 C 15.039062 17.011719 14.984375 17.007812 14.929688 17 C 14.875 16.992188 14.824219 16.988281 14.777344 16.980469 C 14.730469 16.976562 14.691406 16.972656 14.664062 16.96875 Z M 14.664062 15.777344 L 14.664062 16.585938 L 15.160156 16.585938 C 15.21875 16.585938 15.265625 16.574219 15.308594 16.546875 C 15.351562 16.519531 15.382812 16.476562 15.402344 16.414062 C 15.421875 16.355469 15.433594 16.277344 15.433594 16.175781 C 15.433594 16.078125 15.421875 16 15.398438 15.941406 C 15.378906 15.882812 15.347656 15.84375 15.308594 15.816406 C 15.269531 15.789062 15.222656 15.777344 15.167969 15.777344 Z M 16.734375 17.757812 L 16.234375 17.757812 L 16.234375 16.003906 L 16.617188 16.003906 L 16.734375 16.273438 C 16.796875 16.191406 16.871094 16.125 16.953125 16.066406 C 17.035156 16.011719 17.132812 15.984375 17.246094 15.984375 C 17.269531 15.984375 17.292969 15.984375 17.320312 15.984375 C 17.347656 15.988281 17.371094 15.992188 17.394531 16 L 17.394531 16.496094 C 17.359375 16.492188 17.324219 16.488281 17.285156 16.484375 C 17.25 16.480469 17.214844 16.480469 17.179688 16.480469 C 17.117188 16.480469 17.058594 16.484375 17.003906 16.5 C 16.949219 16.515625 16.902344 16.535156 16.859375 16.5625 C 16.816406 16.589844 16.773438 16.625 16.734375 16.667969 Z M 18.433594 17.773438 C 18.285156 17.773438 18.160156 17.757812 18.054688 17.730469 C 17.949219 17.699219 17.863281 17.652344 17.796875 17.582031 C 17.730469 17.511719 17.679688 17.417969 17.652344 17.304688 C 17.621094 17.1875 17.605469 17.046875 17.605469 16.875 C 17.605469 16.699219 17.621094 16.550781 17.652344 16.433594 C 17.679688 16.316406 17.730469 16.226562 17.796875 16.160156 C 17.863281 16.09375 17.949219 16.046875 18.054688 16.019531 C 18.160156 15.992188 18.289062 15.980469 18.433594 15.980469 C 18.585938 15.980469 18.710938 15.992188 18.816406 16.023438 C 18.925781 16.050781 19.011719 16.097656 19.078125 16.164062 C 19.140625 16.230469 19.191406 16.320312 19.222656 16.4375 C 19.25 16.554688 19.265625 16.699219 19.265625 16.875 C 19.265625 17.050781 19.25 17.195312 19.222656 17.3125 C 19.195312 17.429688 19.144531 17.519531 19.082031 17.585938 C 19.015625 17.65625 18.929688 17.703125 18.824219 17.730469 C 18.714844 17.757812 18.585938 17.773438 18.433594 17.773438 Z M 18.433594 17.386719 C 18.496094 17.386719 18.546875 17.382812 18.585938 17.371094 C 18.628906 17.363281 18.664062 17.339844 18.6875 17.304688 C 18.714844 17.273438 18.734375 17.21875 18.746094 17.152344 C 18.761719 17.082031 18.769531 16.988281 18.769531 16.875 C 18.769531 16.761719 18.761719 16.667969 18.746094 16.601562 C 18.734375 16.53125 18.714844 16.480469 18.6875 16.449219 C 18.664062 16.414062 18.628906 16.390625 18.585938 16.382812 C 18.546875 16.371094 18.496094 16.363281 18.433594 16.363281 C 18.375 16.363281 18.324219 16.371094 18.285156 16.382812 C 18.242188 16.390625 18.207031 16.414062 18.179688 16.449219 C 18.152344 16.480469 18.132812 16.53125 18.121094 16.601562 C 18.109375 16.667969 18.105469 16.761719 18.105469 16.875 C 18.105469 16.988281 18.109375 17.082031 18.121094 17.152344 C 18.132812 17.21875 18.152344 17.273438 18.179688 17.304688 C 18.207031 17.339844 18.242188 17.363281 18.285156 17.371094 C 18.324219 17.382812 18.375 17.386719 18.433594 17.386719 Z M 20.359375 17.773438 C 20.160156 17.773438 20 17.746094 19.878906 17.695312 C 19.761719 17.644531 19.675781 17.554688 19.621094 17.425781 C 19.570312 17.292969 19.542969 17.113281 19.542969 16.882812 C 19.542969 16.644531 19.566406 16.460938 19.617188 16.332031 C 19.667969 16.203125 19.75 16.109375 19.867188 16.058594 C 19.984375 16.003906 20.140625 15.980469 20.339844 15.980469 C 20.519531 15.980469 20.664062 15.996094 20.773438 16.03125 C 20.882812 16.066406 20.960938 16.128906 21.007812 16.214844 C 21.054688 16.300781 21.078125 16.425781 21.078125 16.582031 C 21.078125 16.699219 21.054688 16.792969 21.007812 16.863281 C 20.960938 16.929688 20.890625 16.980469 20.804688 17.007812 C 20.714844 17.039062 20.613281 17.050781 20.492188 17.050781 L 20.039062 17.050781 C 20.042969 17.140625 20.058594 17.214844 20.082031 17.265625 C 20.105469 17.320312 20.148438 17.359375 20.210938 17.378906 C 20.277344 17.402344 20.367188 17.414062 20.488281 17.414062 L 21.019531 17.414062 L 21.019531 17.699219 C 20.929688 17.714844 20.835938 17.734375 20.730469 17.75 C 20.625 17.765625 20.503906 17.773438 20.359375 17.773438 Z M 20.03125 16.765625 L 20.441406 16.765625 C 20.511719 16.765625 20.558594 16.753906 20.589844 16.726562 C 20.621094 16.699219 20.636719 16.652344 20.636719 16.585938 C 20.636719 16.523438 20.628906 16.472656 20.609375 16.433594 C 20.585938 16.398438 20.554688 16.371094 20.511719 16.351562 C 20.472656 16.335938 20.414062 16.328125 20.339844 16.328125 C 20.265625 16.328125 20.203125 16.339844 20.160156 16.367188 C 20.113281 16.390625 20.082031 16.433594 20.0625 16.5 C 20.042969 16.5625 20.03125 16.652344 20.03125 16.765625 Z M 21.90625 17.757812 L 21.40625 17.757812 L 21.40625 15.269531 L 21.90625 15.269531 L 21.90625 16.613281 L 22.117188 16.613281 L 22.515625 16.003906 L 23.019531 16.003906 L 22.488281 16.832031 L 23.074219 17.757812 L 22.570312 17.757812 L 22.109375 17.050781 L 21.90625 17.050781 Z M 24.289062 17.757812 L 23.960938 17.757812 C 23.820312 17.757812 23.710938 17.738281 23.621094 17.699219 C 23.535156 17.660156 23.472656 17.59375 23.4375 17.503906 C 23.398438 17.410156 23.378906 17.289062 23.386719 17.132812 L 23.402344 16.394531 L 23.117188 16.394531 L 23.117188 16.085938 L 23.417969 16.003906 L 23.484375 15.515625 L 23.878906 15.515625 L 23.878906 16.003906 L 24.304688 16.003906 L 24.304688 16.394531 L 23.878906 16.394531 L 23.878906 17.132812 C 23.878906 17.179688 23.886719 17.21875 23.894531 17.25 C 23.902344 17.277344 23.914062 17.304688 23.933594 17.320312 C 23.949219 17.339844 23.96875 17.355469 23.992188 17.363281 C 24.015625 17.371094 24.035156 17.375 24.058594 17.378906 L 24.289062 17.398438 Z M 24.289062 17.757812 "/>
</g>
<g clip-path="url(#clip3)" clip-rule="nonzero">
<path style=" stroke:none;fill-rule:nonzero;fill:rgb(100%,100%,100%);fill-opacity:1;" d="M 16.53125 12.699219 C 16.445312 12.699219 16.375 12.734375 16.328125 12.796875 L 15.949219 12.796875 C 15.921875 12.644531 15.863281 12.507812 15.773438 12.390625 L 16.035156 12.132812 C 16.113281 12.148438 16.199219 12.125 16.261719 12.066406 C 16.359375 11.96875 16.359375 11.8125 16.261719 11.71875 C 16.160156 11.621094 16 11.621094 15.898438 11.71875 C 15.839844 11.773438 15.816406 11.851562 15.828125 11.925781 L 15.558594 12.1875 C 15.4375 12.101562 15.296875 12.042969 15.140625 12.019531 L 15.140625 11.660156 C 15.203125 11.613281 15.246094 11.539062 15.246094 11.457031 C 15.246094 11.320312 15.132812 11.210938 14.992188 11.210938 C 14.851562 11.210938 14.738281 11.320312 14.738281 11.457031 C 14.738281 11.539062 14.777344 11.609375 14.839844 11.652344 L 14.839844 12.019531 C 14.683594 12.042969 14.542969 12.101562 14.421875 12.191406 L 14.15625 11.933594 C 14.171875 11.859375 14.148438 11.777344 14.085938 11.71875 C 13.988281 11.621094 13.828125 11.621094 13.726562 11.71875 C 13.628906 11.8125 13.628906 11.96875 13.726562 12.066406 C 13.785156 12.125 13.867188 12.144531 13.941406 12.136719 L 14.210938 12.394531 C 14.121094 12.511719 14.0625 12.652344 14.039062 12.800781 L 13.664062 12.800781 C 13.621094 12.738281 13.542969 12.699219 13.457031 12.699219 C 13.316406 12.699219 13.203125 12.808594 13.203125 12.945312 C 13.203125 13.078125 13.316406 13.191406 13.457031 13.191406 C 13.539062 13.191406 13.613281 13.152344 13.660156 13.089844 L 14.039062 13.089844 C 14.0625 13.242188 14.125 13.378906 14.214844 13.496094 L 13.949219 13.753906 C 13.871094 13.738281 13.789062 13.761719 13.726562 13.820312 C 13.628906 13.917969 13.628906 14.074219 13.726562 14.167969 C 13.828125 14.265625 13.988281 14.265625 14.085938 14.167969 C 14.144531 14.113281 14.167969 14.035156 14.160156 13.960938 L 14.425781 13.703125 C 14.546875 13.785156 14.691406 13.847656 14.847656 13.867188 L 14.847656 14.230469 C 14.78125 14.273438 14.738281 14.347656 14.738281 14.429688 C 14.738281 14.566406 14.851562 14.675781 14.992188 14.675781 C 15.132812 14.675781 15.246094 14.566406 15.246094 14.429688 C 15.246094 14.351562 15.207031 14.277344 15.144531 14.234375 L 15.144531 13.867188 C 15.300781 13.84375 15.445312 13.785156 15.566406 13.699219 L 15.828125 13.953125 C 15.816406 14.027344 15.839844 14.109375 15.898438 14.167969 C 16 14.265625 16.160156 14.265625 16.261719 14.167969 C 16.359375 14.074219 16.359375 13.917969 16.261719 13.820312 C 16.203125 13.765625 16.121094 13.742188 16.042969 13.75 L 15.777344 13.492188 C 15.863281 13.375 15.925781 13.234375 15.949219 13.085938 L 16.320312 13.085938 C 16.367188 13.148438 16.445312 13.191406 16.53125 13.191406 C 16.671875 13.191406 16.785156 13.078125 16.785156 12.945312 C 16.785156 12.808594 16.671875 12.699219 16.53125 12.699219 Z M 15.308594 12.925781 C 15.226562 13.003906 15.117188 13.046875 15 13.046875 C 15 13.046875 14.996094 13.046875 14.996094 13.046875 C 14.996094 13.046875 14.992188 13.046875 14.992188 13.046875 L 14.988281 13.046875 C 14.988281 13.046875 14.988281 13.046875 14.984375 13.046875 C 14.925781 13.042969 14.863281 13.066406 14.820312 13.109375 C 14.78125 13.148438 14.757812 13.203125 14.757812 13.261719 C 14.757812 13.316406 14.78125 13.371094 14.820312 13.410156 C 14.863281 13.453125 14.863281 13.515625 14.820312 13.558594 C 14.800781 13.578125 14.773438 13.585938 14.746094 13.585938 C 14.71875 13.585938 14.691406 13.578125 14.671875 13.558594 C 14.589844 13.476562 14.542969 13.371094 14.542969 13.261719 C 14.542969 13.148438 14.589844 13.042969 14.671875 12.964844 C 14.757812 12.878906 14.875 12.835938 15 12.839844 C 15.058594 12.839844 15.113281 12.820312 15.15625 12.777344 C 15.199219 12.738281 15.222656 12.683594 15.222656 12.628906 C 15.222656 12.570312 15.199219 12.515625 15.15625 12.476562 C 15.113281 12.4375 15.113281 12.371094 15.15625 12.328125 C 15.199219 12.289062 15.265625 12.289062 15.308594 12.328125 C 15.390625 12.410156 15.433594 12.515625 15.433594 12.628906 C 15.433594 12.738281 15.390625 12.84375 15.308594 12.925781 Z M 15.308594 12.925781 "/>
</g>
</g>
</svg>
